<?xml version="1.0" encoding="utf-8"?>
<!-- Generator: Adobe Illustrator 26.0.0, SVG Export Plug-In . SVG Version: 6.00 Build 0)  -->
<svg version="1.1" id="Layer_1" xmlns="http://www.w3.org/2000/svg" xmlns:xlink="http://www.w3.org/1999/xlink" x="0px" y="0px"
	 viewBox="0 0 286.6 89.3" style="enable-background:new 0 0 286.6 89.3;" xml:space="preserve">
<style type="text/css">
	.st0{fill:#FF433E;}
</style>
<g>
	<polygon points="155.4,7.9 155.4,81.5 139.4,81.5 139.4,32.7 120.2,81.5 106.9,81.5 90.7,41 90.7,7.9 93.5,7.9 113.7,57.6 
		132.9,7.9 	"/>
	<path d="M62.4,59.7c0,11.5-9.6,23.2-27.2,23.2C17.5,83,8.7,73,5.9,63.6l14.8-4.9c1.5,5.5,6.1,9.8,14.7,9.8c6.4,0,10.4-3.1,10.4-7.7
		c0-3.7-3-6.4-7.9-7.4l-10.1-1.9c-12.4-2.4-20-10.7-20-21.6c0-13.9,12.2-23.6,26.3-23.6c15.4,0,22.8,7.7,25.6,15.3l-14.7,4.9
		c-1.6-2.9-4.8-5.7-11-5.7c-6.1,0-10.1,3.8-10.1,7.9c0,3.5,2.2,6.1,7.3,7.1l9.9,1.9C55.1,40.2,62.4,49.3,62.4,59.7z"/>
	<polygon class="st0" points="85,26.7 72.1,39.6 72.1,81.5 88.7,81.5 88.7,23 	"/>
	<rect x="72.1" y="7.9" class="st0" width="16.6" height="15"/>
	<g>
		<g>
			<path class="st0" d="M162.6,55.2V7.9h56.4v73.5h-56.4v-21h35.9v-5.3H162.6z M183.2,34.2h15.4v-5.3h-15.4V34.2z"/>
			<path class="st0" d="M280.6,81.5h-56.4V7.9h56.4V81.5z M260.1,28.9h-15.4v31.5h15.4V28.9z"/>
		</g>
	</g>
</g>
</svg>
