<?xml version="1.0" encoding="utf-8"?>
<!-- Generator: Adobe Illustrator 26.0.0, SVG Export Plug-In . SVG Version: 6.00 Build 0)  -->
<svg version="1.1" id="Layer_1" xmlns="http://www.w3.org/2000/svg" xmlns:xlink="http://www.w3.org/1999/xlink" x="0px" y="0px"
	 viewBox="0 0 595.3 274.6" style="enable-background:new 0 0 595.3 274.6;" xml:space="preserve">
<style type="text/css">
	.st0{fill:url(#SVGID_1_);}
	.st1{filter:url(#Adobe_OpacityMaskFilter);}
	.st2{fill:#FFFFFF;}
	.st3{mask:url(#SVGID_00000093162198089266251890000016450278637323123594_);}
	.st4{opacity:0.15;}
	.st5{fill:none;stroke:#FFFFFF;stroke-miterlimit:10;}
</style>
<linearGradient id="SVGID_1_" gradientUnits="userSpaceOnUse" x1="361.9695" y1="-33.4232" x2="260.745" y2="232.2105">
	<stop  offset="0" style="stop-color:#C85A00"/>
	<stop  offset="1" style="stop-color:#E93329"/>
</linearGradient>
<path class="st0" d="M595.3,270.8c0,0-59.4,6.5-85.6-57.4c-31.8-77.7-101.9-86.4-151.5-36.7c-73.9,73.9-124.1,92.9-173.9,92.9
	s-56.8-38.7-99.9-49.6S0,279.7,0,279.7V0h595.3V270.8z"/>
<defs>
	<filter id="Adobe_OpacityMaskFilter" filterUnits="userSpaceOnUse" x="-35.2" y="-175.7" width="609.8" height="531.5">
		<feColorMatrix  type="matrix" values="1 0 0 0 0  0 1 0 0 0  0 0 1 0 0  0 0 0 1 0"/>
	</filter>
</defs>
<mask maskUnits="userSpaceOnUse" x="-35.2" y="-175.7" width="609.8" height="531.5" id="SVGID_00000052099032208117782330000001814518239695550361_">
	<g class="st1">
		<path class="st2" d="M595.3,270.8c0,0-59.4,6.5-85.6-57.4c-31.8-77.7-101.9-86.4-151.5-36.7c-73.9,73.9-124.1,92.9-173.9,92.9
			s-56.8-38.7-99.9-49.6S0,279.7,0,279.7V0h595.3V270.8z"/>
	</g>
</mask>
<g style="mask:url(#SVGID_00000052099032208117782330000001814518239695550361_);">
	<g class="st4">
		<path class="st5" d="M355.3,279.7c0,0-17.6-148.6-149-101.1s-89.2-3.5-139.6-51.1S-85.5,158.4-4.4,19
			c16.6-26.4-7.4-89.8,55.4-79.1s128.1,40.9,221.1-31.2"/>
		<path class="st5" d="M358.2,277.6c0,0-17.6-148.6-149-101.1S120,173,69.6,125.4S-82.6,156.2-1.5,16.8C15.1-9.5-8.9-72.9,53.8-62.3
			s128.1,40.9,221.1-31.2"/>
		<path class="st5" d="M361.1,275.4c0,0-17.6-148.6-149-101.1s-89.2-3.5-139.6-51.1S-79.8,154.1,1.3,14.7
			c16.6-26.4-7.4-89.8,55.4-79.1s128.1,40.9,221.1-31.2"/>
		<path class="st5" d="M364,273.3c0,0-17.6-148.6-149-101.1s-89.2-3.5-139.6-51.1S-76.9,151.9,4.2,12.5
			c16.6-26.4-7.4-89.8,55.4-79.1s128.1,40.9,221.1-31.2"/>
		<path class="st5" d="M366.8,271.1c0,0-17.6-148.6-149-101.1s-89.2-3.5-139.6-51.1S-74,149.8,7.1,10.4C23.7-16-0.3-79.4,62.5-68.8
			S190.6-27.9,283.6-100"/>
		<path class="st5" d="M369.7,269c0,0-17.6-148.6-149-101.1s-89.2-3.5-139.6-51.1S-71.1,147.6,10,8.2c16.6-26.4-7.4-89.8,55.4-79.1
			S193.5-30,286.5-102.2"/>
		<path class="st5" d="M372.6,266.8c0,0-17.6-148.6-149-101.1s-89.2-3.5-139.6-51.1S-68.2,145.5,12.9,6.1
			c16.6-26.4-7.4-89.8,55.4-79.1s128.1,40.9,221.1-31.2"/>
		<path class="st5" d="M375.5,264.7c0,0-17.6-148.6-149-101.1s-89.2-3.5-139.6-51.1S-65.4,143.3,15.8,3.9
			c16.6-26.4-7.4-89.8,55.4-79.1s128.1,40.9,221.1-31.2"/>
		<path class="st5" d="M378.4,262.5c0,0-17.6-148.6-149-101.1s-89.2-3.5-139.6-51.1S-62.5,141.2,18.6,1.8C35.2-24.6,11.2-88,74-77.4
			s128.1,40.9,221.1-31.2"/>
		<path class="st5" d="M381.2,260.4c0,0-17.6-148.6-149-101.1s-89.2-3.5-139.6-51.1S-59.6,139,21.5-0.4
			c16.6-26.4-7.4-89.8,55.4-79.1S205-38.6,298-110.8"/>
		<path class="st5" d="M384.1,258.2c0,0-17.6-148.6-149-101.1s-89.2-3.5-139.6-51.1S-56.7,136.9,24.4-2.5C41-28.9,17-92.3,79.8-81.7
			s128.1,40.9,221.1-31.2"/>
		<path class="st5" d="M387,256.1c0,0-17.6-148.6-149-101.1s-89.2-3.5-139.6-51.1S-53.8,134.7,27.3-4.7C43.9-31,19.9-94.5,82.6-83.8
			s128.1,40.9,221.1-31.2"/>
		<path class="st5" d="M389.9,253.9c0,0-17.6-148.6-149-101.1s-89.2-3.5-139.6-51.1S-50.9,132.5,30.2-6.8
			C46.8-33.2,22.8-96.6,85.5-86s128.1,40.9,221.1-31.2"/>
		<path class="st5" d="M392.8,251.8c0,0-17.6-148.6-149-101.1s-89.2-3.5-139.6-51.1S-48.1,130.4,33.1-9
			c16.6-26.4-7.4-89.8,55.4-79.1s128.1,40.9,221.1-31.2"/>
		<path class="st5" d="M395.7,249.6c0,0-17.6-148.6-149-101.1S157.4,145,107,97.4S-45.2,128.2,35.9-11.2
			c16.6-26.4-7.4-89.8,55.4-79.1s128.1,40.9,221.1-31.2"/>
		<path class="st5" d="M398.5,247.4c0,0-17.6-148.6-149-101.1s-89.2-3.5-139.6-51.1S-42.3,126.1,38.8-13.3
			c16.6-26.4-7.4-89.8,55.4-79.1s128.1,40.9,221.1-31.2"/>
		<path class="st5" d="M401.4,245.3c0,0-17.6-148.6-149-101.1s-89.2-3.5-139.6-51.1S-39.4,123.9,41.7-15.5
			c16.6-26.4-7.4-89.8,55.4-79.1s128.1,40.9,221.1-31.2"/>
		<path class="st5" d="M404.3,243.1c0,0-17.6-148.6-149-101.1s-89.2-3.5-139.6-51.1S-36.5,121.8,44.6-17.6
			c16.6-26.4-7.4-89.8,55.4-79.1S228-55.8,321-128"/>
		<path class="st5" d="M407.2,241c0,0-17.6-148.6-149-101.1s-89.2-3.5-139.6-51.1S-33.6,119.6,47.5-19.8
			c16.6-26.4-7.4-89.8,55.4-79.1S230.9-58,323.9-130.1"/>
		<path class="st5" d="M410.1,238.8c0,0-17.6-148.6-149-101.1s-89.2-3.5-139.6-51.1S-30.8,117.5,50.3-21.9
			c16.6-26.4-7.4-89.8,55.4-79.1s128.1,40.9,221.1-31.2"/>
		<path class="st5" d="M412.9,236.7c0,0-17.6-148.6-149-101.1s-89.2-3.5-139.6-51.1S-27.9,115.3,53.2-24.1
			c16.6-26.4-7.4-89.8,55.4-79.1s128.1,40.9,221.1-31.2"/>
		<path class="st5" d="M415.8,234.5c0,0-17.6-148.6-149-101.1s-89.2-3.5-139.6-51.1S-25,113.2,56.1-26.2
			c16.6-26.4-7.4-89.8,55.4-79.1s128.1,40.9,221.1-31.2"/>
		<path class="st5" d="M418.7,232.4c0,0-17.6-148.6-149-101.1s-89.2-3.5-139.6-51.1S-22.1,111,59-28.4c16.6-26.4-7.4-89.8,55.4-79.1
			s128.1,40.9,221.1-31.2"/>
		<path class="st5" d="M421.6,230.2c0,0-17.6-148.6-149-101.1S183.4,125.6,133,78S-19.2,108.9,61.9-30.5
			c16.6-26.4-7.4-89.8,55.4-79.1s128.1,40.9,221.1-31.2"/>
		<path class="st5" d="M424.5,228.1c0,0-17.6-148.6-149-101.1s-89.2-3.5-139.6-51.1S-16.4,106.7,64.8-32.7
			c16.6-26.4-7.4-89.8,55.4-79.1s128.1,40.9,221.1-31.2"/>
		<path class="st5" d="M427.4,225.9c0,0-17.6-148.6-149-101.1s-89.2-3.5-139.6-51.1S-13.5,104.6,67.6-34.8
			c16.6-26.4-7.4-89.8,55.4-79.1s128.1,40.9,221.1-31.2"/>
		<path class="st5" d="M430.2,223.8c0,0-17.6-148.6-149-101.1s-89.2-3.5-139.6-51.1S-10.6,102.4,70.5-37
			c16.6-26.4-7.4-89.8,55.4-79.1S254-75.2,347-147.4"/>
		<path class="st5" d="M433.1,221.6c0,0-17.6-148.6-149-101.1s-89.2-3.5-139.6-51.1S-7.7,100.3,73.4-39.1
			c16.6-26.4-7.4-89.8,55.4-79.1s128.1,40.9,221.1-31.2"/>
		<path class="st5" d="M436,219.5c0,0-17.6-148.6-149-101.1s-89.2-3.5-139.6-51.1S-4.8,98.1,76.3-41.3c16.6-26.4-7.4-89.8,55.4-79.1
			s128.1,40.9,221.1-31.2"/>
		<path class="st5" d="M438.9,217.3c0,0-17.6-148.6-149-101.1s-89.2-3.5-139.6-51.1S-1.9,96,79.2-43.4c16.6-26.4-7.4-89.8,55.4-79.1
			s128.1,40.9,221.1-31.2"/>
		<path class="st5" d="M441.8,215.2c0,0-17.6-148.6-149-101.1s-89.2-3.5-139.6-51.1S0.9,93.8,82-45.6c16.6-26.4-7.4-89.8,55.4-79.1
			S265.5-83.8,358.5-156"/>
		<path class="st5" d="M444.6,213c0,0-17.6-148.6-149-101.1s-89.2-3.5-139.6-51.1S3.8,91.6,84.9-47.7c16.6-26.4-7.4-89.8,55.4-79.1
			S268.4-86,361.4-158.1"/>
		<path class="st5" d="M447.5,210.9c0,0-17.6-148.6-149-101.1s-89.2-3.5-139.6-51.1S6.7,89.5,87.8-49.9
			c16.6-26.4-7.4-89.8,55.4-79.1c62.8,10.6,128.1,40.9,221.1-31.2"/>
		<path class="st5" d="M450.4,208.7c0,0-17.6-148.6-149-101.1s-89.2-3.5-139.6-51.1S9.6,87.3,90.7-52.1
			c16.6-26.4-7.4-89.8,55.4-79.1s128.1,40.9,221.1-31.2"/>
		<path class="st5" d="M453.3,206.5c0,0-17.6-148.6-149-101.1s-89.2-3.5-139.6-51.1S12.5,85.2,93.6-54.2
			c16.6-26.4-7.4-89.8,55.4-79.1C211.7-122.7,277-92.4,370-164.6"/>
		<path class="st5" d="M456.2,204.4c0,0-17.6-148.6-149-101.1S218,99.8,167.6,52.2S15.3,83,96.5-56.4c16.6-26.4-7.4-89.8,55.4-79.1
			s128.1,40.9,221.1-31.2"/>
		<path class="st5" d="M459.1,202.2c0,0-17.6-148.6-149-101.1S220.9,97.6,170.5,50S18.2,80.9,99.3-58.5
			c16.6-26.4-7.4-89.8,55.4-79.1c62.8,10.6,128.1,40.9,221.1-31.2"/>
		<path class="st5" d="M461.9,200.1c0,0-17.6-148.6-149-101.1s-89.2-3.5-139.6-51.1S21.1,78.7,102.2-60.7
			c16.6-26.4-7.4-89.8,55.4-79.1S285.7-98.9,378.7-171"/>
		<path class="st5" d="M464.8,197.9c0,0-17.6-148.6-149-101.1s-89.2-3.5-139.6-51.1S24,76.6,105.1-62.8
			c16.6-26.4-7.4-89.8,55.4-79.1c62.8,10.6,128.1,40.9,221.1-31.2"/>
		<path class="st5" d="M467.7,195.8c0,0-17.6-148.6-149-101.1s-89.2-3.5-139.6-51.1S26.9,74.4,108-65c16.6-26.4-7.4-89.8,55.4-79.1
			s128.1,40.9,221.1-31.2"/>
	</g>
	<g class="st4">
		<path class="st5" d="M240.5,355.7c0,0-18.8-148.5,120.2-134.1s85.7-24.9,123.1-83.3s155.2-6.8,42.8-122.5
			c-22.5-21.6-14.5-88.9-72.8-63.4S339.4,23,231.7-24.5"/>
		<path class="st5" d="M237.2,354.3c0,0-18.8-148.5,120.2-134.1s85.7-24.9,123.1-83.3s155.2-6.8,42.8-122.5
			C500.9-7.1,508.9-74.4,450.5-49S336.1,21.6,228.4-25.9"/>
		<path class="st5" d="M233.9,352.9c0,0-18.8-148.5,120.2-134.1s85.7-24.9,123.1-83.3s155.2-6.8,42.8-122.5
			c-22.5-21.6-14.5-88.9-72.8-63.4S332.8,20.2,225.1-27.3"/>
		<path class="st5" d="M230.6,351.5c0,0-18.8-148.5,120.2-134.1s85.7-24.9,123.1-83.3s155.2-6.8,42.8-122.5
			c-22.5-21.6-14.5-88.9-72.8-63.4S329.5,18.8,221.8-28.7"/>
		<path class="st5" d="M227.3,350.1c0,0-18.8-148.5,120.2-134.1s85.7-24.9,123.1-83.3s155.2-6.8,42.8-122.5
			c-22.5-21.6-14.5-88.9-72.8-63.4S326.1,17.4,218.5-30.1"/>
		<path class="st5" d="M224,348.7c0,0-18.8-148.5,120.2-134.1s85.7-24.9,123.1-83.3s155.2-6.8,42.8-122.5
			c-22.5-21.6-14.5-88.9-72.8-63.4S322.8,16,215.2-31.5"/>
		<path class="st5" d="M220.6,347.4c0,0-18.8-148.5,120.2-134.1S426.6,188.3,464,130s155.2-6.8,42.8-122.5
			C484.3-14.1,492.3-81.4,434-56S319.5,14.7,211.8-32.9"/>
		<path class="st5" d="M217.3,346c0,0-18.8-148.5,120.2-134.1s85.7-24.9,123.1-83.3s155.2-6.8,42.8-122.5
			C481-15.5,489-82.8,430.6-57.4S316.2,13.3,208.5-34.3"/>
		<path class="st5" d="M214,344.6c0,0-18.8-148.5,120.2-134.1s85.7-24.9,123.1-83.3s155.2-6.8,42.8-122.5
			c-22.5-21.6-14.5-88.9-72.8-63.4S312.9,11.9,205.2-35.7"/>
		<path class="st5" d="M210.7,343.2c0,0-18.8-148.5,120.2-134.1s85.7-24.9,123.1-83.3S609.2,119,496.8,3.3
			c-22.5-21.6-14.5-88.9-72.8-63.4S309.6,10.5,201.9-37.1"/>
		<path class="st5" d="M207.4,341.8c0,0-18.8-148.5,120.2-134.1s85.7-24.9,123.1-83.3s155.2-6.8,42.8-122.5
			C471-19.7,479-87,420.7-61.5S306.2,9.1,198.6-38.5"/>
		<path class="st5" d="M204.1,340.4c0,0-18.8-148.5,120.2-134.1S410,181.4,447.4,123s155.2-6.8,42.8-122.5
			c-22.5-21.6-14.5-88.9-72.8-63.4S302.9,7.7,195.3-39.9"/>
		<path class="st5" d="M200.7,339c0,0-18.8-148.5,120.2-134.1s85.7-24.9,123.1-83.3s155.2-6.8,42.8-122.5
			c-22.5-21.6-14.5-88.9-72.8-63.4S299.6,6.3,191.9-41.3"/>
		<path class="st5" d="M197.4,337.6c0,0-18.8-148.5,120.2-134.1c139,14.4,85.7-24.9,123.1-83.3s155.2-6.8,42.8-122.5
			c-22.5-21.6-14.5-88.9-72.8-63.4S296.3,4.9,188.6-42.7"/>
		<path class="st5" d="M194.1,336.2c0,0-18.8-148.5,120.2-134.1s85.7-24.9,123.1-83.3S592.6,112,480.3-3.7
			c-22.5-21.6-14.5-88.9-72.8-63.4S293,3.5,185.3-44.1"/>
		<path class="st5" d="M190.8,334.8c0,0-18.8-148.5,120.2-134.1s85.7-24.9,123.1-83.3s155.2-6.8,42.8-122.5
			c-22.5-21.6-14.5-88.9-72.8-63.4S289.7,2.1,182-45.4"/>
		<path class="st5" d="M187.5,333.4c0,0-18.8-148.5,120.2-134.1s85.7-24.9,123.1-83.3S586,109.2,473.6-6.5
			c-22.5-21.6-14.5-88.9-72.8-63.4S286.3,0.7,178.7-46.8"/>
		<path class="st5" d="M184.2,332c0,0-18.8-148.5,120.2-134.1s85.7-24.9,123.1-83.3s155.2-6.8,42.8-122.5
			c-22.5-21.6-14.5-88.9-72.8-63.4S283-0.7,175.4-48.2"/>
		<path class="st5" d="M180.8,330.6c0,0-18.8-148.5,120.2-134.1s85.7-24.9,123.1-83.3S579.3,106.5,467-9.2
			c-22.5-21.6-14.5-88.9-72.8-63.4S279.7-2.1,172-49.6"/>
		<path class="st5" d="M177.5,329.2c0,0-18.8-148.5,120.2-134.1s85.7-24.9,123.1-83.3s155.2-6.8,42.8-122.5
			c-22.5-21.6-14.5-88.9-72.8-63.4S276.4-3.5,168.7-51"/>
		<path class="st5" d="M174.2,327.8c0,0-18.8-148.5,120.2-134.1s85.7-24.9,123.1-83.3s155.2-6.8,42.8-122.5
			c-22.5-21.6-14.5-88.9-72.8-63.4S273.1-4.9,165.4-52.4"/>
		<path class="st5" d="M170.9,326.5c0,0-18.8-148.5,120.2-134.1s85.7-24.9,123.1-83.3s155.2-6.8,42.8-122.5
			c-22.5-21.6-14.5-88.9-72.8-63.4S269.8-6.2,162.1-53.8"/>
		<path class="st5" d="M167.6,325.1c0,0-18.8-148.5,120.2-134.1s85.7-24.9,123.1-83.3s155.2-6.8,42.8-122.5
			c-22.5-21.6-14.5-88.9-72.8-63.4S266.4-7.6,158.8-55.2"/>
		<path class="st5" d="M164.3,323.7c0,0-18.8-148.5,120.2-134.1s85.7-24.9,123.1-83.3s155.2-6.8,42.8-122.5
			c-22.5-21.6-14.5-88.9-72.8-63.4S263.1-9,155.5-56.6"/>
		<path class="st5" d="M160.9,322.3c0,0-18.8-148.5,120.2-134.1s85.7-24.9,123.1-83.3s155.2-6.8,42.8-122.5
			c-22.5-21.6-14.5-88.9-72.8-63.4S259.8-10.4,152.1-58"/>
		<path class="st5" d="M157.6,320.9c0,0-18.8-148.5,120.2-134.1s85.7-24.9,123.1-83.3S556.1,96.7,443.8-19
			c-22.5-21.6-14.5-88.9-72.8-63.4S256.5-11.8,148.8-59.4"/>
		<path class="st5" d="M154.3,319.5c0,0-18.8-148.5,120.2-134.1s85.7-24.9,123.1-83.3s155.2-6.8,42.8-122.5
			C418-42,426-109.3,367.6-83.8S253.2-13.2,145.5-60.8"/>
		<path class="st5" d="M151,318.1c0,0-18.8-148.5,120.2-134.1s85.7-24.9,123.1-83.3s155.2-6.8,42.8-122.5
			c-22.5-21.6-14.5-88.9-72.8-63.4S249.9-14.6,142.2-62.2"/>
		<path class="st5" d="M147.7,316.7c0,0-18.8-148.5,120.2-134.1s85.7-24.9,123.1-83.3s155.2-6.8,42.8-122.5
			c-22.5-21.6-14.5-88.9-72.8-63.4S246.5-16,138.9-63.6"/>
		<path class="st5" d="M144.4,315.3c0,0-18.8-148.5,120.2-134.1c139,14.4,85.7-24.9,123.1-83.3s155.2-6.8,42.8-122.5
			C408-46.1,416-113.5,357.7-88S243.2-17.4,135.6-65"/>
		<path class="st5" d="M141,313.9c0,0-18.8-148.5,120.2-134.1s85.7-24.9,123.1-83.3S539.5,89.7,427.2-26
			c-22.5-21.6-14.5-88.9-72.8-63.4S239.9-18.8,132.2-66.3"/>
		<path class="st5" d="M137.7,312.5c0,0-18.8-148.5,120.2-134.1s85.7-24.9,123.1-83.3s155.2-6.8,42.8-122.5
			c-22.5-21.6-14.5-88.9-72.8-63.4S236.6-20.2,128.9-67.7"/>
		<path class="st5" d="M134.4,311.1c0,0-18.8-148.5,120.2-134.1s85.7-24.9,123.1-83.3s155.2-6.8,42.8-122.5
			c-22.5-21.6-14.5-88.9-72.8-63.4S233.3-21.6,125.6-69.1"/>
		<path class="st5" d="M131.1,309.7c0,0-18.8-148.5,120.2-134.1s85.7-24.9,123.1-83.3s155.2-6.8,42.8-122.5
			c-22.5-21.6-14.5-88.9-72.8-63.4S230-23,122.3-70.5"/>
		<path class="st5" d="M127.8,308.3c0,0-18.8-148.5,120.2-134.1s85.7-24.9,123.1-83.3s155.2-6.8,42.8-122.5
			c-22.5-21.6-14.5-88.9-72.8-63.4S226.6-24.4,119-71.9"/>
		<path class="st5" d="M124.5,306.9c0,0-18.8-148.5,120.2-134.1s85.7-24.9,123.1-83.3S523,82.8,410.6-32.9
			c-22.5-21.6-14.5-88.9-72.8-63.4S223.3-25.8,115.7-73.3"/>
		<path class="st5" d="M121.2,305.6c0,0-18.8-148.5,120.2-134.1s85.7-24.9,123.1-83.3s155.2-6.8,42.8-122.5
			c-22.5-21.6-14.5-88.9-72.8-63.4S220-27.1,112.3-74.7"/>
		<path class="st5" d="M117.8,304.2c0,0-18.8-148.5,120.2-134.1s85.7-24.9,123.1-83.3S516.3,80,404-35.7
			c-22.5-21.6-14.5-88.9-72.8-63.4S216.7-28.5,109-76.1"/>
		<path class="st5" d="M114.5,302.8c0,0-18.8-148.5,120.2-134.1s85.7-24.9,123.1-83.3S513,78.6,400.7-37.1
			c-22.5-21.6-14.5-88.9-72.8-63.4S213.4-29.9,105.7-77.5"/>
		<path class="st5" d="M111.2,301.4c0,0-18.8-148.5,120.2-134.1s85.7-24.9,123.1-83.3s155.2-6.8,42.8-122.5
			c-22.5-21.6-14.5-88.9-72.8-63.4S210.1-31.3,102.4-78.9"/>
	</g>
</g>
</svg>
